<svg xmlns="http://www.w3.org/2000/svg" width="42" height="48" viewBox="0 0 42 48"><path fill="#95CF00" fill-rule="evenodd" d="M330.727 569.6c-.792 0-1.432-.623-1.432-1.393s.64-1.392 1.432-1.392c.792 0 1.432.621 1.432 1.392 0 .77-.64 1.394-1.432 1.394zm-11.454 0c-.792 0-1.432-.623-1.432-1.393s.64-1.392 1.432-1.392c.792 0 1.432.621 1.432 1.392 0 .77-.64 1.394-1.432 1.394zm12.3-5.581l.534-.785.534-.773 1.189-1.739a.454.454 0 0 0-.134-.643.478.478 0 0 0-.658.13l-1.815 2.644-.545.796a16.069 16.069 0 0 0-5.678-1.016 16.08 16.08 0 0 0-5.678 1.016l-.542-.796-.536-.782-1.276-1.862a.489.489 0 0 0-.664-.13.459.459 0 0 0-.134.643l1.19 1.739.533.773.536.785c-4.05 1.837-6.791 5.317-6.791 9.299h26.724c0-3.982-2.74-7.462-6.788-9.3zm-19.73 11.156h-.205v20.438c0 1.623 1.354 2.944 3.024 2.944h2.181a2.616 2.616 0 0 0-.116.773v5.884c0 1.539 1.285 2.786 2.865 2.786 1.58 0 2.865-1.247 2.865-2.786v-5.884c0-.27-.044-.528-.116-.773h5.318a2.713 2.713 0 0 0-.113.773v5.884c0 1.539 1.282 2.786 2.862 2.786 1.583 0 2.868-1.247 2.868-2.786v-5.884c0-.27-.044-.528-.119-.773h2.184c1.67 0 3.021-1.32 3.021-2.944v-20.438h-26.518zm-4.978 0c-1.583 0-2.865 1.247-2.865 2.785v11.924c0 1.538 1.282 2.786 2.865 2.786 1.58 0 2.862-1.248 2.862-2.786V577.96c0-1.538-1.282-2.785-2.862-2.785zm36.273 0c-1.583 0-2.865 1.247-2.865 2.785v11.924c0 1.538 1.282 2.786 2.865 2.786 1.58 0 2.862-1.248 2.862-2.786V577.96c0-1.538-1.282-2.785-2.862-2.785z" transform="translate(-304 -560)"/></svg>