<?xml version="1.0" encoding="UTF-8"?>
<svg width="16px" height="16px" viewBox="0 0 16 16" version="1.1" xmlns="http://www.w3.org/2000/svg" xmlns:xlink="http://www.w3.org/1999/xlink">
    <title>calendar-o</title>
    <g id="迭代需求0627" stroke="none" stroke-width="1" fill="none" fill-rule="evenodd">
        <g transform="translate(-1377.000000, -580.000000)" fill="#74788d" fill-rule="nonzero" id="编组-26备份-3">
            <g transform="translate(749.000000, 307.000000)">
                <g id="编组-20" transform="translate(24.000000, 24.000000)">
                    <g id="编组-24备份-2" transform="translate(0.000000, 40.000000)">
                        <g id="编组-45备份-2" transform="translate(30.000000, 201.000000)">
                            <g id="编组-25" transform="translate(358.000000, 0.000000)">
                                <g id="calendar-o" transform="translate(216.000000, 8.000000)">
                                    <path d="M13,4.33333333 L13,3 L3,3 L3,4.33333333 L13,4.33333333 Z M13,5.33333333 L3,5.33333333 L3,13 L13,13 L13,5.33333333 Z M2.33333333,2 L13.6666667,2 C13.8507616,2 14,2.14923842 14,2.33333333 L14,13.6666667 C14,13.8507616 13.8507616,14 13.6666667,14 L2.33333333,14 C2.14923842,14 2,13.8507616 2,13.6666667 L2,2.33333333 C2,2.14923842 2.14923842,2 2.33333333,2 Z M4.83333333,6.66666667 L5.83333333,6.66666667 L5.83333333,7.66666667 L4.83333333,7.66666667 L4.83333333,6.66666667 Z M7.5,6.66666667 L8.5,6.66666667 L8.5,7.66666667 L7.5,7.66666667 L7.5,6.66666667 Z M10.1666667,6.66666667 L11.1666667,6.66666667 L11.1666667,7.66666667 L10.1666667,7.66666667 L10.1666667,6.66666667 Z M4.83333333,8.66666667 L5.83333333,8.66666667 L5.83333333,9.66666667 L4.83333333,9.66666667 L4.83333333,8.66666667 Z M7.5,8.66666667 L8.5,8.66666667 L8.5,9.66666667 L7.5,9.66666667 L7.5,8.66666667 Z M10.1666667,8.66666667 L11.1666667,8.66666667 L11.1666667,9.66666667 L10.1666667,9.66666667 L10.1666667,8.66666667 Z M4.83333333,10.6666667 L5.83333333,10.6666667 L5.83333333,11.6666667 L4.83333333,11.6666667 L4.83333333,10.6666667 Z M7.5,10.6666667 L8.5,10.6666667 L8.5,11.6666667 L7.5,11.6666667 L7.5,10.6666667 Z" id="形状"></path>
                                </g>
                            </g>
                        </g>
                    </g>
                </g>
            </g>
        </g>
    </g>
</svg>