<svg xmlns="http://www.w3.org/2000/svg" enable-background="new 0 0 24 24" viewBox="0 0 24 24" id="flutter"><polygon fill="#0D47A1" points="11.536 21.231 14.305 24 21.695 24 15.232 17.537 11.536 21.231"></polygon><polygon fill="#42A5F5" points="7.849 17.538 11.539 13.848 15.229 17.538 11.539 21.229 7.849 17.538"></polygon><polygon fill="#5A9FD7" points="15.233 17.536 15.231 17.536 15.231 17.536 15.232 17.536 15.232 17.536 15.233 17.536"></polygon><polygon fill="#0B3E8C" points="15.372 17.677 17.02 19.337 13.11 20.688 12.054 21.744 11.54 21.23 11.536 21.231 14.305 24 21.695 24 15.372 17.677"></polygon><polygon fill="#3990D5" points="15.227 17.536 7.852 17.536 7.849 17.538 11.539 21.229 15.229 17.538 15.227 17.536"></polygon><defs><polyline id="a" points="13.11 20.688 11.54 21.23 12.054 21.744 13.11 20.688"></polyline></defs><defs><path id="b" d="M11.539,21.229l-0.003,0.003L11.539,21.229 M15.232,17.536L15.232,17.536l0.14,0.141L15.232,17.536 M15.231,17.536l-3.692,3.692l3.69-3.69l0,0L15.231,17.536L15.231,17.536"></path></defs><defs><polyline id="c" points="15.232 17.536 15.231 17.536 15.232 17.537 15.232 17.536 15.232 17.536"></polyline></defs><defs><path id="d" d="M11.539,21.229l-0.003,0.003l0.004-0.001L11.539,21.229 M15.232,17.537L15.232,17.537l-0.002,0.002l0.515,0.515l-2.634,2.634l3.91-1.35l-1.648-1.661L15.232,17.537"></path></defs><defs><polyline id="e" points="15.229 17.538 11.539 21.229 15.229 17.539 15.229 17.538"></polyline></defs><defs><polyline id="f" points="15.229 17.539 11.539 21.229 11.54 21.23 13.11 20.688 15.744 18.054 15.229 17.539"></polyline></defs><path fill="#68B7F7" d="M21.695,11.073h-7.391l-2.768,2.768l3.694,3.694h0.002L21.695,11.073L21.695,11.073z M21.695,0h-7.391l-12,11.999L6,15.695L21.695,0L21.695,0z"></path><path fill="#5B9FD7" d="M20.844,11.073h-6.539l-2.768,2.768l3.694,3.694h0.002l5.611-5.611V11.073L20.844,11.073z M15.695,6H8.304l-5.999,5.999L6,15.695L15.695,6L15.695,6z"></path></svg>