<?xml version="1.0" encoding="UTF-8"?>
<svg width="140px" height="33px" viewBox="0 0 140 33" version="1.1" xmlns="http://www.w3.org/2000/svg" xmlns:xlink="http://www.w3.org/1999/xlink">
    <title>编组 23</title>
    <defs>
        <linearGradient x1="105.780523%" y1="42.9473054%" x2="-7.83746186%" y2="57.0526946%" id="linearGradient-1">
            <stop stop-color="#69C2F7" offset="0%"></stop>
            <stop stop-color="#4662EB" offset="100%"></stop>
        </linearGradient>
        <linearGradient x1="100%" y1="31.97679%" x2="32.7464586%" y2="63.4583339%" id="linearGradient-2">
            <stop stop-color="#9EFBF7" offset="0%"></stop>
            <stop stop-color="#3FC6FC" offset="100%"></stop>
        </linearGradient>
        <linearGradient x1="67.4216574%" y1="0%" x2="43.9882943%" y2="87.336118%" id="linearGradient-3">
            <stop stop-color="#9EFBF7" offset="0%"></stop>
            <stop stop-color="#3FC6FC" offset="100%"></stop>
        </linearGradient>
    </defs>
    <g id="开关+配置" stroke="none" stroke-width="1" fill="none" fill-rule="evenodd">
        <g id="Toggle" transform="translate(-10.000000, -8.000000)">
            <g id="编组-22" transform="translate(10.077359, 8.934298)">
                <g id="编组-5备份-3" transform="translate(33.795077, 12.412354)" fill="#000000" fill-opacity="0.84" fill-rule="nonzero">
                    <g id="FeatureProbe">
                        <path d="M8.90580956,4.49704214 L8.90580956,6.45729128 L2.32972013,6.45729128 L2.32972013,10.9872788 L0,10.9872788 L0,5.25478551 C0.0110152252,3.60751732 0.165228378,2.52581122 0.462639458,2.00966718 C0.837157114,1.28486918 1.37965695,0.768725153 2.09013898,0.461235092 C2.800621,0.153745031 3.80025269,0 5.08903403,0 L8.90580956,0 L8.90580956,1.96024914 L5.38644511,1.96024914 C4.29593782,1.98221272 3.59647102,2.07006702 3.28804472,2.22381205 C2.67119211,2.47639317 2.35175058,3.03646435 2.32972013,3.9040256 L2.32972013,4.49704214 L8.90580956,4.49704214 Z" id="路径"></path>
                        <path d="M17.0694683,6.09000572 L17.0694683,7.81066923 L12.2023398,7.81066923 C12.2483647,8.34010416 12.426711,8.71512057 12.7373788,8.93571845 C13.0480466,9.15631634 13.55432,9.26661528 14.256199,9.26661528 L17.0694683,9.26661528 L17.0694683,10.9872788 L13.9973092,10.9872788 C13.3299488,10.9872788 12.7862802,10.9293718 12.3663034,10.813558 C11.9463266,10.6977441 11.5522388,10.5074784 11.1840399,10.2427609 C10.1599869,9.48169822 9.64796036,8.35113405 9.64796036,6.85106843 C9.64796036,5.88043773 9.91835638,5.03113587 10.4591484,4.30316285 C10.8273473,3.80681761 11.2703365,3.45386099 11.7881161,3.244293 C12.3058958,3.03472501 12.9847624,2.92994101 13.824716,2.92994101 L17.0694683,2.92994101 L17.0694683,4.65060452 L13.9973092,4.65060452 C13.3644674,4.65060452 12.9214782,4.75263104 12.6683415,4.95668409 C12.4152048,5.16073713 12.2598709,5.53851101 12.2023398,6.09000572 L17.0694683,6.09000572 Z" id="路径"></path>
                        <path d="M24.883748,6.09000572 C24.883748,5.52748112 24.771574,5.14694976 24.5472259,4.94841167 C24.3228779,4.74987357 23.8769178,4.65060452 23.2093456,4.65060452 L19.4993952,4.65060452 L19.4993952,2.92994101 L23.2093456,2.92994101 C23.8769178,2.92994101 24.3365576,2.94372838 24.5882652,2.97130311 C24.8399728,2.99887785 25.0971522,3.05126985 25.3598036,3.12847911 C26.5745661,3.59173467 27.1491159,4.70023904 27.0834531,6.45399224 L27.0834531,10.9872788 L22.4542229,10.9872788 C21.6224936,10.9872788 21.0479438,10.9624615 20.7305734,10.912827 C20.413203,10.8631925 20.1341359,10.761166 19.8933722,10.6067474 C19.2476876,10.1655517 18.9248453,9.49824306 18.9248453,8.60482162 C18.9248453,8.0643568 19.053435,7.58179893 19.3106145,7.157148 C19.5677939,6.73249707 19.9097879,6.44296234 20.3365964,6.28854382 C20.7086858,6.15618509 21.3270109,6.09000572 22.1915716,6.09000572 L24.883748,6.09000572 Z M24.883748,7.81066923 L22.3557287,7.81066923 L21.9781673,7.81066923 C21.7264598,7.81066923 21.5267353,7.8768486 21.3789939,8.00920733 C21.2312525,8.14156606 21.1573818,8.32355932 21.1573818,8.5551871 C21.1573818,8.80887467 21.2476683,8.99086792 21.4282411,9.10116687 C21.6088139,9.21146581 21.9179764,9.26661528 22.3557287,9.26661528 L24.883748,9.26661528 L24.883748,7.81066923 Z" id="形状"></path>
                        <path d="M29.5810922,2.96508273 L29.5810922,0 L31.7556156,0 L31.7556156,2.96508273 L33.7678612,2.96508273 L33.7678612,4.67824164 L31.7556156,4.67824164 L31.7556156,7.59390633 C31.7556156,8.27477718 31.8151175,8.70306691 31.9341213,8.87877551 C32.1180362,9.14233842 32.442592,9.27411988 32.9077885,9.27411988 L33.7678612,9.27411988 L33.7678612,10.9872788 L32.1937659,10.9872788 C31.2525542,10.9872788 30.5818057,10.7566612 30.1815203,10.2954262 C29.7812349,9.83419106 29.5810922,9.05997501 29.5810922,7.97277801 L29.5810922,4.67824164 L28.2017303,4.67824164 L28.2017303,2.96508273 L29.5810922,2.96508273 Z" id="路径"></path>
                        <path d="M41.1358955,9.26661528 L41.1358955,2.92994101 L43.4158216,2.92994101 L43.4158216,10.9872788 L38.9240268,10.9872788 C38.2774806,10.9872788 37.7783923,10.9404017 37.4267619,10.8466476 C37.0751315,10.7528935 36.7632013,10.5846876 36.4909713,10.34203 C35.9124826,9.83465484 35.6232382,9.01292771 35.6232382,7.8768486 L35.6232382,2.92994101 L37.88615,2.92994101 L37.88615,8.10847638 C37.88615,8.47246289 37.9854005,8.75648267 38.1839016,8.96053571 C38.3824026,9.16458876 38.6517968,9.26661528 38.9920843,9.26661528 L41.1358955,9.26661528 Z" id="路径"></path>
                        <path d="M44.9001232,2.92994101 L48.1192979,2.92994101 C48.7804752,2.92994101 49.2926166,2.97681806 49.6557222,3.07057216 C50.0188278,3.16432626 50.3196093,3.32150226 50.5580666,3.54210014 C50.796524,3.76269803 50.9645281,4.03844539 51.0620788,4.36934222 C51.1596296,4.70023904 51.208405,5.1745245 51.208405,5.79219858 L51.208405,6.56980613 L49.1110639,6.56980613 L49.1110639,6.13964025 C49.1110639,5.56608575 49.0135131,5.1745245 48.8184116,4.96495651 C48.6233101,4.75538852 48.2493656,4.65060452 47.696578,4.65060452 L47.0787566,4.65060452 L47.0787566,10.9872788 L44.9001232,10.9872788 L44.9001232,2.92994101 Z" id="路径"></path>
                        <path d="M59.0009883,6.09000572 L59.0009883,7.81066923 L54.1338599,7.81066923 C54.1798847,8.34010416 54.358231,8.71512057 54.6688988,8.93571845 C54.9795666,9.15631634 55.48584,9.26661528 56.187719,9.26661528 L59.0009883,9.26661528 L59.0009883,10.9872788 L55.9288292,10.9872788 C55.2614688,10.9872788 54.7178002,10.9293718 54.2978234,10.813558 C53.8778466,10.6977441 53.4837588,10.5074784 53.1155599,10.2427609 C52.0915069,9.48169822 51.5794804,8.35113405 51.5794804,6.85106843 C51.5794804,5.88043773 51.8498764,5.03113587 52.3906684,4.30316285 C52.7588673,3.80681761 53.2018565,3.45386099 53.7196362,3.244293 C54.2374158,3.03472501 54.9162824,2.92994101 55.756236,2.92994101 L59.0009883,2.92994101 L59.0009883,4.65060452 L55.9288292,4.65060452 C55.2959875,4.65060452 54.8529982,4.75263104 54.5998615,4.95668409 C54.3467248,5.16073713 54.1913909,5.53851101 54.1338599,6.09000572 L59.0009883,6.09000572 Z" id="路径"></path>
                        <path d="M63.44142,7.14914392 L63.44142,10.9872788 L61.2274407,10.9872788 L61.2274407,0 L66.419378,0 C67.3652565,0 68.040884,0.0713816213 68.4462605,0.214144864 C69.1322822,0.455744198 69.6727842,0.955415547 70.0677664,1.71315891 C70.3588059,2.28421188 70.5043257,2.9046829 70.5043257,3.57457196 C70.5043257,4.13464314 70.4081787,4.66451441 70.2158847,5.16418576 C70.0235907,5.66385711 69.7559383,6.07292871 69.4129275,6.39140056 C69.1010994,6.67692704 68.7710814,6.87459922 68.4228733,6.9844171 C68.0746653,7.09423498 67.5991275,7.14914392 66.9962599,7.14914392 L63.44142,7.14914392 Z M63.44142,5.18889478 L66.4505608,5.18889478 C66.9910628,5.18889478 67.3704536,5.10104048 67.5887333,4.92533187 C67.9109556,4.65078717 68.0720668,4.1730794 68.0720668,3.49220855 C68.0720668,2.75642876 67.8278015,2.28421188 67.3392708,2.07555791 C67.1625682,1.9986854 66.881923,1.96024914 66.497335,1.96024914 L63.44142,1.96024914 L63.44142,5.18889478 Z" id="形状"></path>
                        <path d="M72.3597027,2.92994101 L75.5788774,2.92994101 C76.2400547,2.92994101 76.7521961,2.97681806 77.1153017,3.07057216 C77.4784073,3.16432626 77.7791887,3.32150226 78.0176461,3.54210014 C78.2561035,3.76269803 78.4241076,4.03844539 78.5216583,4.36934222 C78.6192091,4.70023904 78.6679844,5.1745245 78.6679844,5.79219858 L78.6679844,6.56980613 L76.5706433,6.56980613 L76.5706433,6.13964025 C76.5706433,5.56608575 76.4730926,5.1745245 76.2779911,4.96495651 C76.0828896,4.75538852 75.7089451,4.65060452 75.1561575,4.65060452 L74.5383361,4.65060452 L74.5383361,10.9872788 L72.3597027,10.9872788 L72.3597027,2.92994101 Z" id="路径"></path>
                        <path d="M84.0402916,2.92994101 C85.5317985,2.92994101 86.6310944,3.34808628 87.3381791,4.18437683 C87.9900229,4.94561566 88.3159448,5.90520546 88.3159448,7.06314622 C88.3159448,8.28541702 87.9071614,9.26108933 87.0895947,9.99016314 C86.3383171,10.6549069 85.3108345,10.9872788 84.007147,10.9872788 C82.6592666,10.9872788 81.6041636,10.6120202 80.8418378,9.86150305 C80.134753,9.18603761 79.7812106,8.19964363 79.7812106,6.90232111 C79.7812106,5.8087104 80.1181807,4.89736813 80.7921209,4.16829432 C81.5433985,3.35344712 82.626122,2.94066268 84.0402916,2.92994101 Z M84.0568639,4.57035709 C82.7200317,4.57035709 82.0516157,5.37448261 82.0516157,6.98273367 C82.0516157,7.63675576 82.1620976,8.13531359 82.3830616,8.47840715 C82.7476522,9.05737753 83.3111104,9.34686272 84.0734362,9.34686272 C85.3881719,9.34686272 86.0455398,8.54809803 86.0455398,6.95056865 C86.0455398,5.38520429 85.3826478,4.59180043 84.0568639,4.57035709 Z" id="形状"></path>
                        <path d="M92.0013133,2.96508273 L93.9395663,2.96508273 C94.7937117,2.96508273 95.4890737,3.09686419 96.0256522,3.3604271 C96.7593412,3.7228261 97.2904444,4.27740639 97.6189618,5.02416796 C97.8489241,5.58423915 97.9639052,6.19921927 97.9639052,6.86910833 C97.9639052,8.49441294 97.378049,9.66946424 96.2063368,10.3942622 C95.834017,10.6248798 95.4507466,10.7813703 95.0565257,10.8637337 C94.6623047,10.9460971 94.1038251,10.9872788 93.3810867,10.9872788 L89.8002464,10.9872788 L89.8002464,0 L92.0013133,0 L92.0013133,2.96508273 Z M92.0013133,4.67824164 L92.0013133,9.27411988 L93.6274748,9.27411988 C94.3173614,9.27411988 94.837514,9.05997501 95.1879327,8.63168529 C95.5383513,8.17045019 95.7135606,7.60488812 95.7135606,6.93499906 C95.7135606,5.43049411 95.0181986,4.67824164 93.6274748,4.67824164 L92.0013133,4.67824164 Z" id="形状"></path>
                        <path d="M106.127564,6.09000572 L106.127564,7.81066923 L101.260435,7.81066923 C101.30646,8.34010416 101.484807,8.71512057 101.795474,8.93571845 C102.106142,9.15631634 102.612416,9.26661528 103.314295,9.26661528 L106.127564,9.26661528 L106.127564,10.9872788 L103.055405,10.9872788 C102.388044,10.9872788 101.844376,10.9293718 101.424399,10.813558 C101.004422,10.6977441 100.610334,10.5074784 100.242136,10.2427609 C99.2180825,9.48169822 98.706056,8.35113405 98.706056,6.85106843 C98.706056,5.88043773 98.976452,5.03113587 99.517244,4.30316285 C99.8854429,3.80681761 100.328432,3.45386099 100.846212,3.244293 C101.363991,3.03472501 102.042858,2.92994101 102.882812,2.92994101 L106.127564,2.92994101 L106.127564,4.65060452 L103.055405,4.65060452 C102.422563,4.65060452 101.979574,4.75263104 101.726437,4.95668409 C101.4733,5.16073713 101.317967,5.53851101 101.260435,6.09000572 L106.127564,6.09000572 Z" id="路径"></path>
                    </g>
                </g>
                <g id="编组备份-16" transform="translate(14.951440, 15.565702) scale(-1, 1) rotate(-30.000000) translate(-14.951440, -15.565702) translate(4.620488, 3.556556)">
                    <path d="M4.91950124,0 C2.20393656,0 2.17426077e-12,2.17416476 2.17426077e-12,4.85304634 L2.17426077e-12,6.79426488 L2.17426077e-12,7.7600211 C0.821556707,7.15339031 1.83989346,6.79426488 2.94186174,6.79426488 L15.742404,6.79426488 C17.2526908,6.79426488 18.6006342,6.12454448 19.5058224,5.06658038 C20.2289891,4.22700336 20.6619052,3.13506794 20.6619052,1.94121854 L20.6619052,0 L4.91950124,0 Z" id="Fill-1" fill="url(#linearGradient-1)" fill-rule="nonzero"></path>
                    <path d="M5.81223958e-12,9.23604854 L5.81223958e-12,11.3507413 L5.81223958e-12,12.402801 C0.795475542,11.7419595 1.78148415,11.3507413 2.8484693,11.3507413 L8.77928725,11.3507413 C10.2416285,11.3507413 11.54678,10.6211723 12.4232321,9.46866475 C13.1234411,8.55406011 13.5430902,7.68693858 13.5430902,6.38640251 L13.5430902,4.27170969 L4.54330743,4.27170969 C1.91395115,4.27170969 5.81223958e-12,5.18724601 5.81223958e-12,8.10552209" id="Fill-3" fill="url(#linearGradient-2)" opacity="0.9"></path>
                    <path d="M5.23965926,15.1417605 L5.23965926,15.1417605 L5.23965926,15.1417605 L5.23965926,18.778633 C5.23965926,21.6724169 2.8937839,24.0182922 -1.46371804e-12,24.0182922 L-1.46371804e-12,24.0182922 L-1.46371804e-12,24.0182922 L-1.46371804e-12,20.3814197 C-1.46407242e-12,17.4876358 2.34587535,15.1417605 5.23965926,15.1417605 Z" id="矩形" fill="url(#linearGradient-3)" opacity="0.96" transform="translate(2.619830, 19.580026) scale(-1, 1) translate(-2.619830, -19.580026) "></path>
                </g>
            </g>
        </g>
    </g>
</svg>