<svg xmlns="http://www.w3.org/2000/svg" enable-background="new 0 0 24 24" viewBox="0 0 24 24"><path d="M0.165,12.292L0.165,12.292l1.008,0.625c0.008,0.098,0.018,0.197,0.028,0.294l-0.866,0.808c-0.068,0.064-0.11,0.154-0.11,0.253c0,0.148,0.093,0.274,0.224,0.324l0.002,0.001l1.106,0.414c0.027,0.096,0.057,0.191,0.087,0.286l-0.69,0.959c-0.042,0.057-0.066,0.127-0.066,0.204c0,0.172,0.127,0.315,0.292,0.341h0.002l1.166,0.189c0.045,0.088,0.092,0.175,0.141,0.262l-0.491,1.077c-0.02,0.043-0.031,0.092-0.031,0.144c0,0.191,0.155,0.346,0.346,0.346c0.005,0,0.009,0,0.014,0l1.182-0.042c0.062,0.077,0.123,0.153,0.187,0.228L3.426,20.16c-0.006,0.024-0.009,0.052-0.009,0.079c0,0.192,0.155,0.346,0.346,0.346c0.028,0,0.056-0.003,0.082-0.01H3.843l1.153-0.271c0.075,0.064,0.151,0.125,0.228,0.186l-0.041,1.185c0,0.005,0,0.01,0,0.015c0,0.19,0.154,0.344,0.344,0.344c0.053,0,0.103-0.012,0.148-0.034l-0.002,0.001l1.076-0.49c0.087,0.049,0.174,0.095,0.262,0.141l0.19,1.167c0.028,0.166,0.171,0.291,0.343,0.291c0.075,0,0.145-0.024,0.202-0.065l-0.001,0.001l0.959-0.691c0.095,0.03,0.189,0.06,0.285,0.087l0.414,1.107c0.05,0.134,0.176,0.227,0.324,0.227c0.1,0,0.19-0.043,0.254-0.112l0.808-0.866c0.097,0.011,0.195,0.02,0.294,0.029l0.624,1.008C11.769,23.936,11.877,24,12.001,24c0.124,0,0.232-0.065,0.294-0.162l0.001-0.001l0.624-1.008c0.098-0.009,0.196-0.018,0.294-0.029l0.807,0.866c0.064,0.067,0.153,0.108,0.253,0.108c0.148,0,0.274-0.092,0.325-0.222l0.001-0.002l0.414-1.107c0.096-0.027,0.191-0.057,0.285-0.087l0.959,0.691c0.057,0.041,0.127,0.066,0.203,0.066c0.172,0,0.315-0.127,0.341-0.292v-0.002l0.19-1.167c0.088-0.045,0.175-0.093,0.262-0.141l1.076,0.49c0.042,0.019,0.091,0.03,0.143,0.03c0.191,0,0.347-0.156,0.347-0.347c0-0.004,0-0.007,0-0.01l-0.042-1.185c0.077-0.061,0.153-0.123,0.227-0.186l1.153,0.272c0.023,0.006,0.051,0.009,0.079,0.009c0.191,0,0.347-0.156,0.347-0.347c0-0.027-0.003-0.055-0.009-0.08v0.002l-0.271-1.155c0.063-0.075,0.126-0.151,0.186-0.228l1.184,0.042c0.005,0,0.01,0,0.016,0c0.19,0,0.344-0.154,0.344-0.344c0-0.053-0.012-0.103-0.033-0.148l0.001,0.002l-0.49-1.077c0.048-0.087,0.095-0.174,0.141-0.262l1.166-0.189c0.166-0.029,0.29-0.172,0.29-0.343c0-0.076-0.024-0.146-0.065-0.203l0.001,0.001l-0.69-0.959l0.087-0.286l1.106-0.414c0.133-0.051,0.226-0.176,0.226-0.325c0-0.1-0.043-0.19-0.11-0.253l-0.866-0.808c0.01-0.097,0.02-0.196,0.028-0.294l1.007-0.624c0.1-0.062,0.166-0.17,0.166-0.295s-0.066-0.233-0.165-0.294l-0.001-0.001l-0.002,0.003l-1.007-0.624c-0.011-0.124-0.019-0.212-0.027-0.295l0.865-0.806c0.067-0.064,0.108-0.153,0.108-0.253c0-0.148-0.092-0.274-0.222-0.325L23.546,9.4L22.44,8.986c-0.035-0.126-0.061-0.209-0.086-0.288l0.689-0.957c0.041-0.057,0.066-0.127,0.066-0.203c0-0.172-0.126-0.315-0.29-0.341h-0.002l-1.166-0.189c-0.058-0.115-0.1-0.191-0.14-0.264l0.489-1.075c0.051-0.109,0.04-0.237-0.027-0.336c-0.067-0.099-0.18-0.158-0.301-0.154L20.488,5.22c-0.07-0.089-0.132-0.163-0.194-0.235l0.007,0.008l0.272-1.154c0.006-0.023,0.009-0.051,0.009-0.079c0-0.192-0.156-0.347-0.347-0.347c-0.028,0-0.056,0.003-0.081,0.009h0.002l-1.153,0.272c-0.053-0.045-0.127-0.106-0.201-0.167l-0.026-0.02l0.042-1.185c0-0.005,0-0.01,0-0.016c0-0.19-0.154-0.344-0.344-0.344c-0.053,0-0.103,0.012-0.148,0.033l0.002-0.001l-1.076,0.491c-0.087-0.048-0.174-0.095-0.262-0.141l-0.19-1.168c-0.029-0.166-0.172-0.29-0.343-0.29c-0.076,0-0.146,0.024-0.203,0.065l0.001-0.001l-0.96,0.691c-0.034-0.014-0.13-0.044-0.226-0.071l-0.06-0.015l-0.414-1.107c-0.052-0.132-0.178-0.224-0.325-0.224c-0.099,0-0.189,0.042-0.252,0.108L13.211,1.2c-0.058-0.008-0.158-0.017-0.26-0.026l-0.033-0.002l-0.624-1.008C12.232,0.065,12.122,0,11.999,0c-0.124,0-0.233,0.065-0.294,0.163l-0.001,0.001l-0.624,1.008C10.983,1.18,10.884,1.19,10.787,1.2L9.979,0.333c-0.064-0.068-0.154-0.11-0.253-0.11c-0.148,0-0.274,0.093-0.324,0.224L9.401,0.449L8.987,1.556c-0.096,0.027-0.19,0.057-0.285,0.086L7.743,0.951C7.688,0.91,7.618,0.887,7.542,0.887c-0.172,0-0.315,0.125-0.343,0.288v0.002l-0.19,1.168c-0.115,0.058-0.191,0.1-0.264,0.14L5.67,1.994c-0.043-0.02-0.092-0.031-0.144-0.031c-0.191,0-0.346,0.155-0.346,0.346c0,0.005,0,0.009,0,0.013l0.042,1.185C5.145,3.568,5.069,3.631,4.994,3.695L3.841,3.422C3.817,3.416,3.79,3.413,3.762,3.413c-0.191,0-0.347,0.156-0.347,0.347c0,0.028,0.003,0.056,0.009,0.081V3.84l0.271,1.154C3.632,5.068,3.569,5.144,3.509,5.22L2.324,5.179c-0.004,0-0.008,0-0.013,0c-0.191,0-0.346,0.155-0.346,0.346c0,0.053,0.011,0.102,0.032,0.146L1.996,5.669l0.491,1.077c-0.024,0.04-0.071,0.126-0.116,0.212L2.347,7.008L1.18,7.197c-0.166,0.029-0.29,0.172-0.29,0.343c0,0.076,0.024,0.146,0.065,0.203L0.955,7.742l0.69,0.959c-0.03,0.095-0.059,0.189-0.087,0.286L0.452,9.401C0.32,9.453,0.228,9.579,0.228,9.726c0,0.099,0.042,0.189,0.108,0.252l0.866,0.807c-0.008,0.058-0.017,0.158-0.026,0.26l-0.002,0.033l-1.007,0.624C0.066,11.765,0,11.873,0,11.998S0.066,12.231,0.165,12.292z M6.84,20.028l-0.005,0.001c-0.044,0.01-0.097,0.016-0.15,0.016c-0.394,0-0.714-0.32-0.714-0.714c0-0.341,0.239-0.627,0.56-0.698l0.005-0.001c0.044-0.01,0.097-0.016,0.15-0.016c0.394,0,0.714,0.32,0.714,0.714C7.4,19.671,7.161,19.957,6.84,20.028z M17.088,20.062L17.088,20.062l0.003,0.001C17.09,20.063,17.089,20.062,17.088,20.062z M17.239,20.078c-0.052,0-0.103-0.006-0.152-0.017c-0.323-0.073-0.561-0.356-0.561-0.697c0-0.394,0.32-0.714,0.714-0.714c0.051,0,0.102,0.006,0.151,0.016c0.324,0.073,0.562,0.357,0.562,0.698C17.952,19.758,17.632,20.078,17.239,20.078z M19.067,17.118c-0.26,0.352-0.526,0.663-0.812,0.953l-1.507-0.324l0.001,0.001c-0.041-0.009-0.088-0.014-0.137-0.014c-0.311,0-0.571,0.219-0.634,0.51l-0.001,0.004l-0.357,1.669c-1.103,0.501-2.328,0.78-3.619,0.78c-0.004,0-0.008,0-0.013,0c-1.316,0-2.563-0.294-3.683-0.815l-0.357-1.668c-0.064-0.296-0.324-0.514-0.634-0.514c-0.049,0-0.096,0.005-0.142,0.015l0.004-0.001l-1.473,0.316c-0.265-0.273-0.515-0.566-0.745-0.875l-0.016-0.023h7.167c0.081,0,0.136-0.014,0.136-0.088v-2.537c0-0.074-0.054-0.088-0.136-0.088h-2.097v-1.608h2.268c0.206,0,1.106,0.059,1.394,1.209c0.09,0.353,0.287,1.505,0.423,1.874c0.135,0.413,0.683,1.239,1.268,1.239h3.572c0.046-0.001,0.091-0.005,0.135-0.014L19.067,17.118z M10.015,10.435V8.783h2.96c0.153,0,1.079,0.177,1.079,0.87c0,0.575-0.711,0.782-1.295,0.782H10.015z M19.809,9.032L19.809,9.032c0.16-0.361,0.581-0.523,0.94-0.363c0.253,0.113,0.425,0.364,0.425,0.653c0,0.394-0.32,0.714-0.714,0.714s-0.714-0.32-0.714-0.714C19.747,9.218,19.77,9.12,19.809,9.032z M11.472,2.316v0.002c0.128-0.122,0.301-0.198,0.492-0.198c0.394,0,0.713,0.319,0.713,0.713c0,0.203-0.085,0.386-0.221,0.516c-0.124,0.107-0.287,0.173-0.467,0.173c-0.394,0-0.714-0.32-0.714-0.714C11.275,2.618,11.35,2.445,11.472,2.316z M10.318,3.306l0.056-0.009l1.097,1.152c0.118,0.125,0.284,0.202,0.47,0.202c0.174,0,0.332-0.069,0.449-0.18l1.227-1.175c2.588,0.497,4.732,2.075,5.982,4.236l0.022,0.043l-0.84,1.899c-0.035,0.078-0.056,0.168-0.056,0.263c0,0.263,0.157,0.491,0.382,0.593l0.004,0.002l1.618,0.719c0.028,0.288,0.043,0.577,0.043,0.872h0.002c0,0.219-0.008,0.436-0.024,0.651h-0.9c-0.09,0-0.127,0.059-0.127,0.148v0.413c0,0.973-0.549,1.185-1.029,1.239c-0.458,0.052-0.965-0.191-1.028-0.472c-0.27-1.519-0.72-1.844-1.43-2.404c0.882-0.56,1.799-1.387,1.799-2.493c0-1.194-0.819-1.947-1.377-2.316c-0.783-0.517-1.649-0.62-1.883-0.62H5.467C6.723,4.667,8.409,3.677,10.318,3.306z M5.145,9.433l0.002,0.004L4.831,8.723h1.243v5.605H3.566c-0.213-0.719-0.335-1.547-0.335-2.402c0-0.321,0.019-0.636,0.053-0.948l1.532-0.681c0.23-0.103,0.387-0.331,0.387-0.595C5.202,9.606,5.182,9.516,5.145,9.433z M3.473,8.592c0.281,0,0.524,0.163,0.641,0.4l0.002,0.004v0.001c0.045,0.091,0.071,0.197,0.071,0.31c0,0.394-0.32,0.714-0.714,0.714c-0.298,0-0.552-0.181-0.659-0.441L2.812,9.575C2.779,9.495,2.76,9.403,2.76,9.306C2.76,8.912,3.079,8.592,3.473,8.592z"/></svg>