<?xml version="1.0" encoding="UTF-8"?>
<svg width="198px" height="47px" viewBox="0 0 198 47" version="1.1" xmlns="http://www.w3.org/2000/svg" xmlns:xlink="http://www.w3.org/1999/xlink">
    <title>编组 2</title>
    <defs>
        <linearGradient x1="105.780523%" y1="42.9706309%" x2="-7.83746186%" y2="57.0293691%" id="linearGradient-1">
            <stop stop-color="#69C2F7" offset="0%"></stop>
            <stop stop-color="#4662EB" offset="100%"></stop>
        </linearGradient>
        <linearGradient x1="100%" y1="32.0363987%" x2="32.7464586%" y2="63.4138228%" id="linearGradient-2">
            <stop stop-color="#9EFBF7" offset="0%"></stop>
            <stop stop-color="#3FC6FC" offset="100%"></stop>
        </linearGradient>
        <linearGradient x1="67.4794677%" y1="0%" x2="43.9683456%" y2="87.336118%" id="linearGradient-3">
            <stop stop-color="#9EFBF7" offset="0%"></stop>
            <stop stop-color="#3FC6FC" offset="100%"></stop>
        </linearGradient>
    </defs>
    <g id="登陆" stroke="none" stroke-width="1" fill="none" fill-rule="evenodd">
        <g id="登陆页的一些交互" transform="translate(-125.000000, -305.000000)">
            <g id="编组-5" transform="translate(86.000000, 266.000000)">
                <g id="编组-2" transform="translate(30.004006, 38.996549)">
                    <g id="编组-5备份-3" transform="translate(49.983943, 18.345903)" fill="#000000" fill-opacity="0.84" fill-rule="nonzero">
                        <g id="FeatureProbe">
                            <path d="M13.1758364,6.64220664 L13.1758364,9.53752748 L3.44674015,9.53752748 L3.44674015,16.228395 L0,16.228395 L0,7.76140629 C0.0162966437,5.32836356 0.244449656,3.73066551 0.684459036,2.96831212 C1.23854492,1.89777332 2.04115463,1.13541994 3.09228815,0.681251963 C4.14342167,0.227083988 5.62234208,0 7.5290494,0 L13.1758364,0 L13.1758364,2.89532084 L7.96905878,2.89532084 C6.35569105,2.92776141 5.32085418,3.05752369 4.86454815,3.28460768 C3.9519361,3.65767423 3.47933343,4.48490875 3.44674015,5.76631126 L3.44674015,6.64220664 L13.1758364,6.64220664 Z" id="路径"></path>
                            <path d="M25.2536865,8.99504055 L25.2536865,11.5364894 L18.0529387,11.5364894 C18.1210309,12.3184737 18.3848881,12.8723792 18.8445103,13.198206 C19.3041325,13.5240327 20.0531464,13.6869461 21.0915521,13.6869461 L25.2536865,13.6869461 L25.2536865,16.228395 L20.7085336,16.228395 C19.7211971,16.228395 18.9168582,16.1428654 18.2955171,15.9718064 C17.674176,15.8007473 17.0911367,15.5197217 16.5463993,15.1287296 C15.0313483,14.0046272 14.2738228,12.334765 14.2738228,10.1191429 C14.2738228,8.68550511 14.6738644,7.43107203 15.4739475,6.35584367 C16.0186849,5.62273342 16.6740721,5.10141058 17.4401091,4.79187515 C18.2061461,4.48233971 19.2105057,4.32757199 20.453188,4.32757199 L25.2536865,4.32757199 L25.2536865,6.86902084 L20.7085336,6.86902084 C19.7722662,6.86902084 19.116879,7.01971572 18.742372,7.32110549 C18.367865,7.62249526 18.1380539,8.18047361 18.0529387,8.99504055 L25.2536865,8.99504055 Z" id="路径"></path>
                            <path d="M36.8146423,8.99504055 C36.8146423,8.16418227 36.6486848,7.60213109 36.3167696,7.30888699 C35.9848545,7.01564289 35.325072,6.86902084 34.337422,6.86902084 L28.848679,6.86902084 L28.848679,4.32757199 L34.337422,4.32757199 C35.325072,4.32757199 36.0050932,4.34793616 36.3774858,4.38866451 C36.7498784,4.42939286 37.1303665,4.50677672 37.5189501,4.62081609 C39.3161491,5.30505232 40.1661757,6.94233186 40.0690298,9.53265473 L40.0690298,16.228395 L33.2202443,16.228395 C31.9897296,16.228395 31.139703,16.1917395 30.6701645,16.1184284 C30.200626,16.0451174 29.787756,15.8944225 29.4315544,15.6663438 C28.4762864,15.0146902 27.9986525,14.0290642 27.9986525,12.7094658 C27.9986525,11.9111902 28.1888965,11.1984441 28.5693846,10.5712276 C28.9498727,9.94401103 29.4558409,9.51636339 30.0872892,9.28828465 C30.6377826,9.09278858 31.5525731,8.99504055 32.8316607,8.99504055 L36.8146423,8.99504055 Z M36.8146423,11.5364894 L33.0745254,11.5364894 L32.5159365,11.5364894 C32.1435439,11.5364894 31.8480585,11.6342374 31.6294802,11.8297335 C31.410902,12.0252296 31.3016128,12.2940367 31.3016128,12.6361548 C31.3016128,13.0108556 31.4351885,13.2796626 31.7023397,13.442576 C31.9694909,13.6054894 32.4268861,13.6869461 33.0745254,13.6869461 L36.8146423,13.6869461 L36.8146423,11.5364894 Z" id="形状"></path>
                            <path d="M43.7642002,4.3794769 L43.7642002,0 L46.9813323,0 L46.9813323,4.3794769 L49.9583799,4.3794769 L49.9583799,6.90984134 L46.9813323,6.90984134 L46.9813323,11.216327 C46.9813323,12.2219846 47.0693633,12.8545757 47.2454252,13.1141003 C47.517521,13.5033871 47.9976899,13.6980305 48.6859321,13.6980305 L49.9583799,13.6980305 L49.9583799,16.228395 L47.6295604,16.228395 C46.2370704,16.228395 45.2447212,15.887769 44.6525128,15.206517 C44.0603044,14.5252651 43.7642002,13.381735 43.7642002,11.7759268 L43.7642002,6.90984134 L41.7234821,6.90984134 L41.7234821,4.3794769 L43.7642002,4.3794769 Z" id="路径"></path>
                            <path d="M60.859131,13.6869461 L60.859131,4.32757199 L64.2322027,4.32757199 L64.2322027,16.228395 L57.5867481,16.228395 C56.6302054,16.228395 55.8918215,16.1591568 55.3715965,16.0206804 C54.8513715,15.882204 54.3898816,15.6337611 53.9871268,15.2753516 C53.1312728,14.5259501 52.7033458,13.3122453 52.7033458,11.6342374 L52.7033458,4.32757199 L56.0512453,4.32757199 L56.0512453,11.9763555 C56.0512453,12.5139697 56.198083,12.9334717 56.4917584,13.2348615 C56.7854338,13.5362512 57.1839932,13.6869461 57.6874368,13.6869461 L60.859131,13.6869461 Z" id="路径"></path>
                            <path d="M66.4281754,4.32757199 L71.1908328,4.32757199 C72.1690217,4.32757199 72.9267172,4.39681018 73.4639193,4.53528656 C74.0011214,4.67376294 74.4461171,4.90591452 74.7989066,5.23174129 C75.151696,5.55756807 75.4002522,5.96485154 75.5445752,6.4535917 C75.6888981,6.94233186 75.7610596,7.64285943 75.7610596,8.5551744 L75.7610596,9.70371379 L72.6581161,9.70371379 L72.6581161,9.06835157 C72.6581161,8.22120196 72.5137932,7.64285943 72.2251473,7.333324 C71.9365014,7.02378856 71.3832634,6.86902084 70.5654334,6.86902084 L69.651388,6.86902084 L69.651388,16.228395 L66.4281754,16.228395 L66.4281754,4.32757199 Z" id="路径"></path>
                            <path d="M87.2899165,8.99504055 L87.2899165,11.5364894 L80.0891686,11.5364894 C80.1572608,12.3184737 80.421118,12.8723792 80.8807402,13.198206 C81.3403624,13.5240327 82.0893764,13.6869461 83.1277821,13.6869461 L87.2899165,13.6869461 L87.2899165,16.228395 L82.7447636,16.228395 C81.757427,16.228395 80.9530882,16.1428654 80.331747,15.9718064 C79.7104059,15.8007473 79.1273666,15.5197217 78.5826292,15.1287296 C77.0675782,14.0046272 76.3100528,12.334765 76.3100528,10.1191429 C76.3100528,8.68550511 76.7100943,7.43107203 77.5101774,6.35584367 C78.0549148,5.62273342 78.710302,5.10141058 79.476339,4.79187515 C80.2423761,4.48233971 81.2467357,4.32757199 82.4894179,4.32757199 L87.2899165,4.32757199 L87.2899165,6.86902084 L82.7447636,6.86902084 C81.8084961,6.86902084 81.1531089,7.01971572 80.778602,7.32110549 C80.404095,7.62249526 80.1742839,8.18047361 80.0891686,8.99504055 L87.2899165,8.99504055 Z" id="路径"></path>
                            <path d="M93.8593811,10.5594054 L93.8593811,16.228395 L90.5838756,16.228395 L90.5838756,0 L98.2651668,0 C99.6645612,0 100.664129,0.105431851 101.263869,0.316295554 C102.278814,0.67314182 103.078468,1.41116478 103.662831,2.53036443 C104.093414,3.37381924 104.308705,4.29026534 104.308705,5.27970271 C104.308705,6.10693724 104.166459,6.88956598 103.881967,7.62758894 C103.597475,8.3656119 103.201492,8.96981751 102.694019,9.44020577 C102.232681,9.86193317 101.74443,10.1538983 101.229269,10.3161011 C100.714107,10.478304 100.010565,10.5594054 99.1186436,10.5594054 L93.8593811,10.5594054 Z M93.8593811,7.66408458 L98.3113007,7.66408458 C99.1109546,7.66408458 99.6722502,7.5343223 99.9951873,7.27479774 C100.471904,6.86929062 100.710262,6.16370823 100.710262,5.15805057 C100.710262,4.07129149 100.34888,3.37381924 99.6261163,3.06563383 C99.364691,2.95209184 98.949486,2.89532084 98.3805015,2.89532084 L93.8593811,2.89532084 L93.8593811,7.66408458 Z" id="形状"></path>
                            <path d="M107.053671,4.32757199 L111.816329,4.32757199 C112.794517,4.32757199 113.552213,4.39681018 114.089415,4.53528656 C114.626617,4.67376294 115.071613,4.90591452 115.424402,5.23174129 C115.777192,5.55756807 116.025748,5.96485154 116.170071,6.4535917 C116.314394,6.94233186 116.386555,7.64285943 116.386555,8.5551744 L116.386555,9.70371379 L113.283612,9.70371379 L113.283612,9.06835157 C113.283612,8.22120196 113.139289,7.64285943 112.850643,7.333324 C112.561997,7.02378856 112.008759,6.86902084 111.190929,6.86902084 L110.276884,6.86902084 L110.276884,16.228395 L107.053671,16.228395 L107.053671,4.32757199 Z" id="路径"></path>
                            <path d="M124.334697,4.32757199 C126.54133,4.32757199 128.1677,4.94517957 129.213808,6.18039473 C130.178188,7.30475725 130.660378,8.72208746 130.660378,10.4323854 C130.660378,12.2376998 130.055597,13.6787842 128.846036,14.7556384 C127.734546,15.7374761 126.214422,16.228395 124.285661,16.228395 C122.291519,16.228395 120.730531,15.6741318 119.602696,14.5656053 C118.556589,13.5679315 118.033535,12.1110111 118.033535,10.194844 C118.033535,8.57956264 118.53207,7.23349483 119.529142,6.15664059 C120.640631,4.95309762 122.242483,4.34340808 124.334697,4.32757199 Z M124.359216,6.75049403 C122.381419,6.75049403 121.39252,7.93820092 121.39252,10.3136147 C121.39252,11.2796163 121.555975,12.0159946 121.882883,12.5227495 C122.422282,13.3778984 123.255899,13.8054729 124.383734,13.8054729 C126.32884,13.8054729 127.301393,12.6256841 127.301393,10.2661064 C127.301393,7.95403701 126.320667,6.78216622 124.359216,6.75049403 Z" id="形状"></path>
                            <path d="M136.112753,4.3794769 L138.980331,4.3794769 C140.24401,4.3794769 141.272774,4.57412032 142.066623,4.96340716 C143.15209,5.49867656 143.937839,6.31780094 144.423869,7.42078031 C144.76409,8.24801483 144.934201,9.15635078 144.934201,10.1457882 C144.934201,12.5463903 144.067447,14.2819608 142.333939,15.3524996 C141.783105,15.6931256 141.21607,15.9242646 140.632834,16.0459168 C140.049598,16.1675689 139.223346,16.228395 138.15408,16.228395 L132.856351,16.228395 L132.856351,0 L136.112753,0 L136.112753,4.3794769 Z M136.112753,6.90984134 L136.112753,13.6980305 L138.518603,13.6980305 C139.539266,13.6980305 140.308814,13.381735 140.827246,12.7491439 C141.345678,12.0678919 141.604894,11.2325472 141.604894,10.2431099 C141.604894,8.02093085 140.57613,6.90984134 138.518603,6.90984134 L136.112753,6.90984134 Z" id="形状"></path>
                            <path d="M157.012051,8.99504055 L157.012051,11.5364894 L149.811303,11.5364894 C149.879395,12.3184737 150.143253,12.8723792 150.602875,13.198206 C151.062497,13.5240327 151.811511,13.6869461 152.849917,13.6869461 L157.012051,13.6869461 L157.012051,16.228395 L152.466898,16.228395 C151.479562,16.228395 150.675223,16.1428654 150.053882,15.9718064 C149.43254,15.8007473 148.849501,15.5197217 148.304764,15.1287296 C146.789713,14.0046272 146.032187,12.334765 146.032187,10.1191429 C146.032187,8.68550511 146.432229,7.43107203 147.232312,6.35584367 C147.777049,5.62273342 148.432437,5.10141058 149.198474,4.79187515 C149.964511,4.48233971 150.96887,4.32757199 152.211552,4.32757199 L157.012051,4.32757199 L157.012051,6.86902084 L152.466898,6.86902084 C151.530631,6.86902084 150.875243,7.01971572 150.500736,7.32110549 C150.12623,7.62249526 149.896418,8.18047361 149.811303,8.99504055 L157.012051,8.99504055 Z" id="路径"></path>
                        </g>
                    </g>
                    <g id="编组备份-16" transform="translate(22.105435, 23.003451) scale(-1, 1) rotate(-30.000000) translate(-22.105435, -23.003451) translate(6.821149, 5.265741)">
                        <path d="M7.27823151,0 C3.26064772,0 5.91171556e-12,3.2112778 5.91171556e-12,7.1680308 L5.91171556e-12,10.0352431 L5.91171556e-12,11.4616813 C1.21546466,10.5656774 2.72205858,10.0352431 4.35238244,10.0352431 L23.2903408,10.0352431 C25.5247579,10.0352431 27.5189933,9.04605487 28.8581879,7.48342416 C29.928088,6.24335483 30.5685723,4.6305479 30.5685723,2.86721232 L30.5685723,0 L7.27823151,0 Z" id="Fill-1" fill="url(#linearGradient-1)" fill-rule="nonzero"></path>
                        <path d="M1.09139364e-11,13.6417985 L1.09139364e-11,16.7652353 L1.09139364e-11,18.319145 C1.17687848,17.3430711 2.63564403,16.7652353 4.21421157,16.7652353 L12.9886511,16.7652353 C15.1521343,16.7652353 17.0830606,15.6876496 18.3797411,13.9853766 C19.4156761,12.6344902 20.0365323,11.3537372 20.0365323,9.43282356 L20.0365323,6.30938683 L6.72166581,6.30938683 C2.83162436,6.30938683 1.09139364e-11,7.66164932 1.09139364e-11,11.971992" id="Fill-3" fill="url(#linearGradient-2)" opacity="0.9"></path>
                        <path d="M7.75189419,22.364634 L7.75189419,22.364634 L7.75189419,22.364634 L7.75189419,27.7235261 C7.75189419,32.004779 4.28125294,35.4754203 0,35.4754203 L0,35.4754203 L0,35.4754203 L0,30.1165282 C-5.24302272e-16,25.8352753 3.47064125,22.364634 7.75189419,22.364634 Z" id="矩形" fill="url(#linearGradient-3)" opacity="0.96" transform="translate(3.875947, 28.920027) scale(-1, 1) translate(-3.875947, -28.920027) "></path>
                    </g>
                </g>
            </g>
        </g>
    </g>
</svg>